<mxfile host="app.diagrams.net" modified="2024-03-27T00:27:51.538Z" agent="Mozilla/5.0 (Windows NT 10.0; Win64; x64) AppleWebKit/537.36 (KHTML, like Gecko) Chrome/123.0.0.0 Safari/537.36" etag="zU8GQgAq-kgmB6RrAmEv" version="24.2.0" type="device">
  <diagram name="05 [예제] 구체화(Width Code)" id="Okhfxqb5AKQBt1zYMtm1">
    <mxGraphModel dx="6344" dy="1487" grid="1" gridSize="10" guides="1" tooltips="1" connect="1" arrows="1" fold="1" page="1" pageScale="1" pageWidth="3300" pageHeight="4681" math="0" shadow="0">
      <root>
        <mxCell id="mxSxCT3K7TG5ama-A4u--0" />
        <mxCell id="mxSxCT3K7TG5ama-A4u--1" parent="mxSxCT3K7TG5ama-A4u--0" />
        <mxCell id="mxSxCT3K7TG5ama-A4u--24" value="Presentation Layer(프레젠테이션 계층)&lt;br&gt;- 사용자의 요청사항을 받아서 해당 서비스로 연결해주고 처리 결과를 사용자에게 알려주는 영역" style="rounded=0;whiteSpace=wrap;html=1;" parent="mxSxCT3K7TG5ama-A4u--1" vertex="1">
          <mxGeometry x="-3147.5" y="2490" width="1300" height="50" as="geometry" />
        </mxCell>
        <mxCell id="mxSxCT3K7TG5ama-A4u--49" value="Business Layer(비지니스 계층 )&lt;br&gt;중요! 사용자의 요구사항을 처리하는 영역" style="rounded=0;whiteSpace=wrap;html=1;" parent="mxSxCT3K7TG5ama-A4u--1" vertex="1">
          <mxGeometry x="-3147.5" y="1770" width="1300" height="50" as="geometry" />
        </mxCell>
        <mxCell id="v-Hk2H7jR2KbCjhzF-S7-0" value="서비스형 클래스 만들기" style="text;html=1;align=center;verticalAlign=middle;resizable=0;points=[];autosize=1;strokeColor=none;fillColor=none;" parent="mxSxCT3K7TG5ama-A4u--1" vertex="1">
          <mxGeometry x="-3087.5" y="1880" width="150" height="30" as="geometry" />
        </mxCell>
        <mxCell id="v-Hk2H7jR2KbCjhzF-S7-2" value="&lt;p style=&quot;margin:0px;margin-top:4px;text-align:center;&quot;&gt;&lt;b&gt;인증서비스 Class&lt;/b&gt;&lt;/p&gt;&lt;hr size=&quot;1&quot;&gt;&lt;p style=&quot;margin:0px;margin-left:4px;&quot;&gt;- id : String&lt;br&gt;- pw : String&lt;/p&gt;&lt;p style=&quot;margin:0px;margin-left:4px;&quot;&gt;&lt;span style=&quot;background-color: initial;&quot;&gt;- birth : Date&lt;/span&gt;&lt;/p&gt;&lt;p style=&quot;margin:0px;margin-left:4px;&quot;&gt;&lt;span style=&quot;background-color: initial;&quot;&gt;- addr : String&lt;br&gt;- email : String&lt;/span&gt;&lt;/p&gt;&lt;p style=&quot;margin:0px;margin-left:4px;&quot;&gt;&lt;span style=&quot;background-color: initial;&quot;&gt;- tel : String&lt;/span&gt;&lt;span style=&quot;background-color: initial;&quot;&gt;&amp;nbsp;&lt;/span&gt;&lt;/p&gt;&lt;hr size=&quot;1&quot;&gt;&lt;p style=&quot;margin:0px;margin-left:4px;&quot;&gt;+ createUser() : boolean&lt;/p&gt;&lt;p style=&quot;margin:0px;margin-left:4px;&quot;&gt;+ updateUser() : boolean&lt;/p&gt;&lt;p style=&quot;margin:0px;margin-left:4px;&quot;&gt;+ findUser() : String&lt;/p&gt;&lt;p style=&quot;margin:0px;margin-left:4px;&quot;&gt;+ deleteUser&lt;span style=&quot;background-color: initial;&quot;&gt;()&lt;/span&gt;&lt;span style=&quot;background-color: initial;&quot;&gt;&amp;nbsp;: boolean&lt;/span&gt;&lt;/p&gt;&lt;p style=&quot;margin:0px;margin-left:4px;&quot;&gt;&lt;br&gt;+ loginUser&lt;span style=&quot;background-color: initial;&quot;&gt;()&lt;/span&gt;&lt;span style=&quot;background-color: initial;&quot;&gt;&amp;nbsp;: boolean&lt;/span&gt;&lt;/p&gt;&lt;p style=&quot;margin:0px;margin-left:4px;&quot;&gt;&lt;/p&gt;&lt;div style=&quot;text-align: left;&quot;&gt;&amp;nbsp;+ loginAdministrator&lt;span style=&quot;background-color: initial;&quot;&gt;()&lt;/span&gt;&lt;span style=&quot;background-color: initial;&quot;&gt;&amp;nbsp;: boolean&lt;/span&gt;&lt;/div&gt;&lt;div style=&quot;text-align: left;&quot;&gt;&amp;nbsp;+ logout&lt;span style=&quot;background-color: initial;&quot;&gt;()&lt;/span&gt;&lt;span style=&quot;background-color: initial;&quot;&gt;&amp;nbsp;: boolean&lt;/span&gt;&lt;/div&gt;&lt;br style=&quot;border-color: var(--border-color); text-align: center;&quot;&gt;&lt;br&gt;&lt;p&gt;&lt;/p&gt;" style="verticalAlign=top;align=left;overflow=fill;fontSize=12;fontFamily=Helvetica;html=1;whiteSpace=wrap;shadow=1;" parent="mxSxCT3K7TG5ama-A4u--1" vertex="1">
          <mxGeometry x="-3012.5" y="1920" width="190" height="320" as="geometry" />
        </mxCell>
        <mxCell id="v-Hk2H7jR2KbCjhzF-S7-4" value="&lt;p style=&quot;margin:0px;margin-top:4px;text-align:center;&quot;&gt;&lt;b&gt;알림 서비스 Class&lt;/b&gt;&lt;/p&gt;&lt;hr size=&quot;1&quot;&gt;&lt;p style=&quot;margin:0px;margin-left:4px;&quot;&gt;+ notifyCode : int&lt;/p&gt;&lt;p style=&quot;margin:0px;margin-left:4px;&quot;&gt;&lt;span style=&quot;background-color: initial;&quot;&gt;+ tel : String&lt;/span&gt;&lt;/p&gt;&lt;p style=&quot;margin:0px;margin-left:4px;&quot;&gt;+ date : Date&lt;br&gt;&lt;br&gt;&lt;/p&gt;&lt;hr size=&quot;1&quot;&gt;&lt;p style=&quot;margin:0px;margin-left:4px;&quot;&gt;+ registerAlarm&lt;span style=&quot;background-color: initial;&quot;&gt;()&lt;/span&gt;&lt;span style=&quot;background-color: initial;&quot;&gt;&amp;nbsp;: boolean&lt;/span&gt;&lt;/p&gt;&lt;p style=&quot;margin:0px;margin-left:4px;&quot;&gt;+ deleteAlarm&lt;span style=&quot;background-color: initial;&quot;&gt;()&lt;/span&gt;&lt;span style=&quot;background-color: initial;&quot;&gt;&amp;nbsp;: boolean&lt;/span&gt;&lt;/p&gt;&lt;p style=&quot;margin:0px;margin-left:4px;&quot;&gt;&lt;br&gt;&lt;/p&gt;" style="verticalAlign=top;align=left;overflow=fill;fontSize=12;fontFamily=Helvetica;html=1;whiteSpace=wrap;shadow=1;" parent="mxSxCT3K7TG5ama-A4u--1" vertex="1">
          <mxGeometry x="-2772.5" y="1920" width="160" height="160" as="geometry" />
        </mxCell>
        <mxCell id="v-Hk2H7jR2KbCjhzF-S7-5" value="Service" style="text;html=1;align=center;verticalAlign=middle;resizable=0;points=[];autosize=1;strokeColor=none;fillColor=none;" parent="mxSxCT3K7TG5ama-A4u--1" vertex="1">
          <mxGeometry x="-3087.5" y="1910" width="60" height="30" as="geometry" />
        </mxCell>
        <mxCell id="KW0IFtiiwQ5vjCWQNFQy-0" value="&lt;p style=&quot;margin:0px;margin-top:4px;text-align:center;&quot;&gt;&lt;b&gt;주문 서비스 Class&lt;/b&gt;&lt;/p&gt;&lt;hr size=&quot;1&quot;&gt;&lt;p style=&quot;margin:0px;margin-left:4px;&quot;&gt;+ orderCode: Int&lt;/p&gt;&lt;p style=&quot;margin:0px;margin-left:4px;&quot;&gt;+ orderDate : Date&lt;/p&gt;&lt;p style=&quot;margin:0px;margin-left:4px;&quot;&gt;+ addr : String&lt;/p&gt;&lt;p style=&quot;margin:0px;margin-left:4px;&quot;&gt;+ tel : String&lt;/p&gt;&lt;p style=&quot;margin:0px;margin-left:4px;&quot;&gt;+ tatalCost : Int&lt;/p&gt;&lt;p style=&quot;margin:0px;margin-left:4px;&quot;&gt;+ orderDetail : String&lt;/p&gt;&lt;hr size=&quot;1&quot;&gt;&lt;p style=&quot;margin:0px;margin-left:4px;&quot;&gt;+ orderApply() : boolean&lt;span style=&quot;background-color: initial;&quot;&gt;&amp;nbsp;&lt;/span&gt;&lt;/p&gt;&lt;p style=&quot;margin:0px;margin-left:4px;&quot;&gt;&lt;br&gt;&lt;/p&gt;" style="verticalAlign=top;align=left;overflow=fill;fontSize=12;fontFamily=Helvetica;html=1;whiteSpace=wrap;shadow=1;" parent="mxSxCT3K7TG5ama-A4u--1" vertex="1">
          <mxGeometry x="-2582.5" y="1920" width="160" height="180" as="geometry" />
        </mxCell>
        <mxCell id="4iufTsSp4Iph0FAsAa8I-0" value="&lt;p style=&quot;margin:0px;margin-top:4px;text-align:center;&quot;&gt;&lt;b&gt;결제 서비스 Class&lt;/b&gt;&lt;/p&gt;&lt;hr size=&quot;1&quot;&gt;&lt;p style=&quot;margin:0px;margin-left:4px;&quot;&gt;+ paymentStatus : String&lt;/p&gt;&lt;p style=&quot;margin:0px;margin-left:4px;&quot;&gt;+ paymentMethod : String&lt;br&gt;&lt;/p&gt;&lt;p style=&quot;margin:0px;margin-left:4px;&quot;&gt;&lt;br&gt;&lt;/p&gt;&lt;hr size=&quot;1&quot;&gt;&lt;p style=&quot;margin:0px;margin-left:4px;&quot;&gt;+ payment&lt;span style=&quot;background-color: initial;&quot;&gt;()&lt;/span&gt;&lt;span style=&quot;background-color: initial;&quot;&gt;&amp;nbsp;: boolean&lt;/span&gt;&lt;/p&gt;&lt;p style=&quot;margin:0px;margin-left:4px;&quot;&gt;&lt;br&gt;&lt;/p&gt;&lt;p style=&quot;margin:0px;margin-left:4px;&quot;&gt;&lt;br&gt;&lt;/p&gt;" style="verticalAlign=top;align=left;overflow=fill;fontSize=12;fontFamily=Helvetica;html=1;whiteSpace=wrap;shadow=1;" parent="mxSxCT3K7TG5ama-A4u--1" vertex="1">
          <mxGeometry x="-2387.5" y="1920" width="160" height="160" as="geometry" />
        </mxCell>
        <mxCell id="UAAGlxL8E-bhWDBI-pss-0" value="" style="rounded=0;whiteSpace=wrap;html=1;" parent="mxSxCT3K7TG5ama-A4u--1" vertex="1">
          <mxGeometry x="-2677.5" y="2580" width="670" height="870" as="geometry" />
        </mxCell>
        <mxCell id="UAAGlxL8E-bhWDBI-pss-1" value="" style="rounded=0;whiteSpace=wrap;html=1;" parent="mxSxCT3K7TG5ama-A4u--1" vertex="1">
          <mxGeometry x="-2247.5" y="2630" width="220" height="720" as="geometry" />
        </mxCell>
        <mxCell id="UAAGlxL8E-bhWDBI-pss-2" value="View" style="text;html=1;align=center;verticalAlign=middle;resizable=0;points=[];autosize=1;strokeColor=none;fillColor=none;" parent="mxSxCT3K7TG5ama-A4u--1" vertex="1">
          <mxGeometry x="-3150" y="2550" width="50" height="30" as="geometry" />
        </mxCell>
        <mxCell id="UAAGlxL8E-bhWDBI-pss-3" value="" style="rounded=0;whiteSpace=wrap;html=1;" parent="mxSxCT3K7TG5ama-A4u--1" vertex="1">
          <mxGeometry x="-3147.5" y="2580" width="450" height="870" as="geometry" />
        </mxCell>
        <mxCell id="UAAGlxL8E-bhWDBI-pss-4" value="Controller" style="text;html=1;align=center;verticalAlign=middle;resizable=0;points=[];autosize=1;strokeColor=none;fillColor=none;" parent="mxSxCT3K7TG5ama-A4u--1" vertex="1">
          <mxGeometry x="-2677.5" y="2550" width="80" height="30" as="geometry" />
        </mxCell>
        <mxCell id="UAAGlxL8E-bhWDBI-pss-5" value="&lt;p style=&quot;margin:0px;margin-top:4px;text-align:center;&quot;&gt;&lt;b&gt;Front Controller&amp;nbsp;&lt;/b&gt;&lt;/p&gt;&lt;hr size=&quot;1&quot;&gt;&lt;p style=&quot;margin:0px;margin-left:4px;&quot;&gt;+ field: Type&lt;br&gt;- id: String&lt;br&gt;- pw : String&lt;br&gt;&lt;/p&gt;&lt;p style=&quot;margin:0px;margin-left:4px;&quot;&gt;+ proCode : Int&lt;br&gt;+ proName : String&lt;br&gt;+ proImage : String&lt;br&gt;&lt;/p&gt;&lt;p style=&quot;margin: 0px 0px 0px 4px;&quot;&gt;+ category: String&lt;/p&gt;&lt;p style=&quot;margin: 0px 0px 0px 4px;&quot;&gt;+ proId : Int&lt;/p&gt;&lt;p style=&quot;margin: 0px 0px 0px 4px;&quot;&gt;+ proName : String&lt;/p&gt;&lt;p style=&quot;margin: 0px 0px 0px 4px;&quot;&gt;+ proImage : String&lt;/p&gt;&lt;hr size=&quot;1&quot;&gt;&lt;p style=&quot;margin:0px;margin-left:4px;&quot;&gt;+ loginUser(): boolean&lt;br&gt;&lt;/p&gt;&lt;p style=&quot;margin:0px;margin-left:4px;&quot;&gt;+ searchProject(): List&amp;lt;Project&amp;gt;&lt;br&gt;&lt;/p&gt;" style="verticalAlign=top;align=left;overflow=fill;fontSize=12;fontFamily=Helvetica;html=1;whiteSpace=wrap;shadow=1;" parent="mxSxCT3K7TG5ama-A4u--1" vertex="1">
          <mxGeometry x="-2607.5" y="2880" width="180" height="290" as="geometry" />
        </mxCell>
        <mxCell id="UAAGlxL8E-bhWDBI-pss-6" value="" style="rounded=0;whiteSpace=wrap;html=1;" parent="mxSxCT3K7TG5ama-A4u--1" vertex="1">
          <mxGeometry x="-3142.5" y="2620" width="415" height="380" as="geometry" />
        </mxCell>
        <mxCell id="UAAGlxL8E-bhWDBI-pss-7" value="회원 Viewer" style="text;html=1;align=center;verticalAlign=middle;resizable=0;points=[];autosize=1;strokeColor=none;fillColor=none;" parent="mxSxCT3K7TG5ama-A4u--1" vertex="1">
          <mxGeometry x="-3150" y="1730" width="90" height="30" as="geometry" />
        </mxCell>
        <mxCell id="UAAGlxL8E-bhWDBI-pss-8" value="" style="rounded=0;whiteSpace=wrap;html=1;" parent="mxSxCT3K7TG5ama-A4u--1" vertex="1">
          <mxGeometry x="-3142.5" y="3030" width="415" height="380" as="geometry" />
        </mxCell>
        <mxCell id="UAAGlxL8E-bhWDBI-pss-9" value="관리자 Viewer" style="text;html=1;align=center;verticalAlign=middle;resizable=0;points=[];autosize=1;strokeColor=none;fillColor=none;" parent="mxSxCT3K7TG5ama-A4u--1" vertex="1">
          <mxGeometry x="-3122.5" y="1850" width="100" height="30" as="geometry" />
        </mxCell>
        <mxCell id="UAAGlxL8E-bhWDBI-pss-10" value="&lt;p style=&quot;margin:0px;margin-top:4px;text-align:center;&quot;&gt;&lt;b&gt;로그인화면 View&lt;/b&gt;&lt;/p&gt;&lt;hr size=&quot;1&quot;&gt;&lt;p style=&quot;margin:0px;margin-left:4px;&quot;&gt;- Id: String&lt;br&gt;- pw : String&lt;/p&gt;&lt;hr size=&quot;1&quot;&gt;&lt;p style=&quot;margin:0px;margin-left:4px;&quot;&gt;+ loginUser(): boolean&lt;/p&gt;" style="verticalAlign=top;align=left;overflow=fill;fontSize=12;fontFamily=Helvetica;html=1;whiteSpace=wrap;shadow=1;" parent="mxSxCT3K7TG5ama-A4u--1" vertex="1">
          <mxGeometry x="-3127.5" y="2645" width="175" height="110" as="geometry" />
        </mxCell>
        <mxCell id="UAAGlxL8E-bhWDBI-pss-11" value="&lt;p style=&quot;margin:0px;margin-top:4px;text-align:center;&quot;&gt;&lt;b&gt;메인 화면&amp;nbsp;&lt;/b&gt;&lt;b style=&quot;background-color: initial;&quot;&gt;View&lt;/b&gt;&lt;/p&gt;&lt;hr size=&quot;1&quot;&gt;&lt;p style=&quot;margin:0px;margin-left:4px;&quot;&gt;+ category: String&lt;/p&gt;&lt;p style=&quot;margin:0px;margin-left:4px;&quot;&gt;+ proCode : Int&lt;/p&gt;&lt;p style=&quot;margin:0px;margin-left:4px;&quot;&gt;+ proName : String&lt;/p&gt;&lt;p style=&quot;margin:0px;margin-left:4px;&quot;&gt;+ proImage : String&lt;/p&gt;&lt;hr size=&quot;1&quot;&gt;&lt;p style=&quot;margin:0px;margin-left:4px;&quot;&gt;+ searchProject(): List&amp;lt;Project&amp;gt;&lt;/p&gt;" style="verticalAlign=top;align=left;overflow=fill;fontSize=12;fontFamily=Helvetica;html=1;whiteSpace=wrap;shadow=1;" parent="mxSxCT3K7TG5ama-A4u--1" vertex="1">
          <mxGeometry x="-2919.75" y="2745" width="181.5" height="130" as="geometry" />
        </mxCell>
        <mxCell id="UAAGlxL8E-bhWDBI-pss-12" value="&lt;p style=&quot;margin:0px;margin-top:4px;text-align:center;&quot;&gt;&lt;b&gt;프로젝트 검색 결과&amp;nbsp;&lt;/b&gt;&lt;b style=&quot;background-color: initial;&quot;&gt;View&lt;/b&gt;&lt;/p&gt;&lt;hr size=&quot;1&quot;&gt;&lt;p style=&quot;margin:0px;margin-left:4px;&quot;&gt;+ proId : Int&lt;br&gt;+ proName : String&lt;br&gt;+ proImage : String&lt;/p&gt;&lt;hr size=&quot;1&quot;&gt;&lt;p style=&quot;margin:0px;margin-left:4px;&quot;&gt;+ searchProject(): List&amp;lt;Project&amp;gt;&lt;/p&gt;" style="verticalAlign=top;align=left;overflow=fill;fontSize=12;fontFamily=Helvetica;html=1;whiteSpace=wrap;shadow=1;" parent="mxSxCT3K7TG5ama-A4u--1" vertex="1">
          <mxGeometry x="-3122.5" y="2860" width="180" height="110" as="geometry" />
        </mxCell>
        <mxCell id="UAAGlxL8E-bhWDBI-pss-13" value="&lt;p style=&quot;margin:0px;margin-top:4px;text-align:center;&quot;&gt;&lt;b&gt;커뮤니티&amp;nbsp;&lt;/b&gt;&lt;b style=&quot;background-color: initial;&quot;&gt;Serivce&lt;/b&gt;&lt;/p&gt;&lt;hr size=&quot;1&quot;&gt;&lt;p style=&quot;margin:0px;margin-left:4px;&quot;&gt;+ field: Type&lt;/p&gt;&lt;hr size=&quot;1&quot;&gt;&lt;p style=&quot;margin:0px;margin-left:4px;&quot;&gt;+ method(): Type&lt;/p&gt;" style="verticalAlign=top;align=left;overflow=fill;fontSize=12;fontFamily=Helvetica;html=1;whiteSpace=wrap;shadow=1;" parent="mxSxCT3K7TG5ama-A4u--1" vertex="1">
          <mxGeometry x="-2222.5" y="3000" width="160" height="130" as="geometry" />
        </mxCell>
        <mxCell id="UAAGlxL8E-bhWDBI-pss-14" value="&lt;p style=&quot;margin:0px;margin-top:4px;text-align:center;&quot;&gt;&lt;b&gt;인증Controller Class&lt;/b&gt;&lt;/p&gt;&lt;hr size=&quot;1&quot;&gt;&lt;p style=&quot;margin:0px;margin-left:4px;&quot;&gt;+ field: Type&lt;/p&gt;&lt;hr size=&quot;1&quot;&gt;&lt;p style=&quot;margin:0px;margin-left:4px;&quot;&gt;1 파라미터 받기(DTO)&lt;/p&gt;&lt;p style=&quot;margin:0px;margin-left:4px;&quot;&gt;2 입력값검증(유효성검사)&lt;/p&gt;&lt;p style=&quot;margin:0px;margin-left:4px;&quot;&gt;3 인증서비스실행&lt;/p&gt;&lt;p style=&quot;margin:0px;margin-left:4px;&quot;&gt;4 View로 이동(결과값전달)&lt;/p&gt;" style="verticalAlign=top;align=left;overflow=fill;fontSize=12;fontFamily=Helvetica;html=1;whiteSpace=wrap;shadow=1;" parent="mxSxCT3K7TG5ama-A4u--1" vertex="1">
          <mxGeometry x="-2222.5" y="2645" width="160" height="130" as="geometry" />
        </mxCell>
        <mxCell id="UAAGlxL8E-bhWDBI-pss-15" value="&lt;p style=&quot;margin:0px;margin-top:4px;text-align:center;&quot;&gt;&lt;b&gt;주문&amp;nbsp;&lt;/b&gt;&lt;b style=&quot;background-color: initial;&quot;&gt;Serivce&lt;/b&gt;&lt;/p&gt;&lt;hr size=&quot;1&quot;&gt;&lt;p style=&quot;margin:0px;margin-left:4px;&quot;&gt;+ field: Type&lt;/p&gt;&lt;hr size=&quot;1&quot;&gt;&lt;p style=&quot;margin:0px;margin-left:4px;&quot;&gt;+ method(): Type&lt;/p&gt;" style="verticalAlign=top;align=left;overflow=fill;fontSize=12;fontFamily=Helvetica;html=1;whiteSpace=wrap;shadow=1;" parent="mxSxCT3K7TG5ama-A4u--1" vertex="1">
          <mxGeometry x="-2222.5" y="3180" width="160" height="130" as="geometry" />
        </mxCell>
        <mxCell id="UAAGlxL8E-bhWDBI-pss-16" value="" style="endArrow=none;html=1;rounded=0;exitX=1;exitY=0.5;exitDx=0;exitDy=0;entryX=0;entryY=0.472;entryDx=0;entryDy=0;entryPerimeter=0;" parent="mxSxCT3K7TG5ama-A4u--1" source="UAAGlxL8E-bhWDBI-pss-6" target="UAAGlxL8E-bhWDBI-pss-5" edge="1">
          <mxGeometry width="50" height="50" relative="1" as="geometry">
            <mxPoint x="-2597.5" y="2910" as="sourcePoint" />
            <mxPoint x="-2607.5" y="3010" as="targetPoint" />
          </mxGeometry>
        </mxCell>
        <mxCell id="UAAGlxL8E-bhWDBI-pss-17" value="" style="endArrow=none;html=1;rounded=0;exitX=1;exitY=0.5;exitDx=0;exitDy=0;entryX=0;entryY=0.5;entryDx=0;entryDy=0;" parent="mxSxCT3K7TG5ama-A4u--1" source="UAAGlxL8E-bhWDBI-pss-8" target="UAAGlxL8E-bhWDBI-pss-5" edge="1">
          <mxGeometry width="50" height="50" relative="1" as="geometry">
            <mxPoint x="-2719.5" y="2828" as="sourcePoint" />
            <mxPoint x="-2597.5" y="2898" as="targetPoint" />
          </mxGeometry>
        </mxCell>
        <mxCell id="UAAGlxL8E-bhWDBI-pss-18" value="" style="endArrow=none;html=1;rounded=0;exitX=1;exitY=0.5;exitDx=0;exitDy=0;entryX=0;entryY=0.5;entryDx=0;entryDy=0;" parent="mxSxCT3K7TG5ama-A4u--1" source="UAAGlxL8E-bhWDBI-pss-5" target="UAAGlxL8E-bhWDBI-pss-14" edge="1">
          <mxGeometry width="50" height="50" relative="1" as="geometry">
            <mxPoint x="-2719.5" y="2828" as="sourcePoint" />
            <mxPoint x="-2597.5" y="3018" as="targetPoint" />
          </mxGeometry>
        </mxCell>
        <mxCell id="UAAGlxL8E-bhWDBI-pss-19" value="" style="endArrow=none;html=1;rounded=0;exitX=1;exitY=0.5;exitDx=0;exitDy=0;entryX=0;entryY=0.5;entryDx=0;entryDy=0;" parent="mxSxCT3K7TG5ama-A4u--1" source="UAAGlxL8E-bhWDBI-pss-5" target="UAAGlxL8E-bhWDBI-pss-13" edge="1">
          <mxGeometry width="50" height="50" relative="1" as="geometry">
            <mxPoint x="-2437.5" y="3025" as="sourcePoint" />
            <mxPoint x="-2197.5" y="2785" as="targetPoint" />
          </mxGeometry>
        </mxCell>
        <mxCell id="UAAGlxL8E-bhWDBI-pss-20" value="" style="endArrow=none;html=1;rounded=0;exitX=1;exitY=0.5;exitDx=0;exitDy=0;entryX=0;entryY=0.5;entryDx=0;entryDy=0;" parent="mxSxCT3K7TG5ama-A4u--1" source="UAAGlxL8E-bhWDBI-pss-5" target="UAAGlxL8E-bhWDBI-pss-15" edge="1">
          <mxGeometry width="50" height="50" relative="1" as="geometry">
            <mxPoint x="-2437.5" y="3025" as="sourcePoint" />
            <mxPoint x="-2197.5" y="3015" as="targetPoint" />
          </mxGeometry>
        </mxCell>
        <mxCell id="UAAGlxL8E-bhWDBI-pss-21" value="사용자의 모든 요청을 받는 컨트롤러" style="text;html=1;align=center;verticalAlign=middle;resizable=0;points=[];autosize=1;strokeColor=none;fillColor=none;" parent="mxSxCT3K7TG5ama-A4u--1" vertex="1">
          <mxGeometry x="-2620" y="2850" width="220" height="30" as="geometry" />
        </mxCell>
        <mxCell id="UAAGlxL8E-bhWDBI-pss-22" value="각 서비스와 연결되는 서브 컨트롤러" style="text;html=1;align=center;verticalAlign=middle;resizable=0;points=[];autosize=1;strokeColor=none;fillColor=none;" parent="mxSxCT3K7TG5ama-A4u--1" vertex="1">
          <mxGeometry x="-2257.5" y="2600" width="220" height="30" as="geometry" />
        </mxCell>
        <mxCell id="UAAGlxL8E-bhWDBI-pss-23" value="" style="endArrow=none;html=1;rounded=0;exitX=1;exitY=1;exitDx=0;exitDy=0;entryX=0;entryY=0.5;entryDx=0;entryDy=0;" parent="mxSxCT3K7TG5ama-A4u--1" source="UAAGlxL8E-bhWDBI-pss-10" target="UAAGlxL8E-bhWDBI-pss-11" edge="1">
          <mxGeometry width="50" height="50" relative="1" as="geometry">
            <mxPoint x="-2717.5" y="2820" as="sourcePoint" />
            <mxPoint x="-2907.5" y="2790" as="targetPoint" />
          </mxGeometry>
        </mxCell>
        <mxCell id="UAAGlxL8E-bhWDBI-pss-24" value="" style="endArrow=none;html=1;rounded=0;exitX=1;exitY=0;exitDx=0;exitDy=0;entryX=0;entryY=0.5;entryDx=0;entryDy=0;" parent="mxSxCT3K7TG5ama-A4u--1" source="UAAGlxL8E-bhWDBI-pss-12" target="UAAGlxL8E-bhWDBI-pss-11" edge="1">
          <mxGeometry width="50" height="50" relative="1" as="geometry">
            <mxPoint x="-2958.5" y="2710" as="sourcePoint" />
            <mxPoint x="-2907.5" y="2790" as="targetPoint" />
          </mxGeometry>
        </mxCell>
        <mxCell id="UAAGlxL8E-bhWDBI-pss-28" value="" style="endArrow=none;html=1;rounded=0;exitX=1;exitY=1;exitDx=0;exitDy=0;" parent="mxSxCT3K7TG5ama-A4u--1" edge="1">
          <mxGeometry width="50" height="50" relative="1" as="geometry">
            <mxPoint x="-2972.5" y="3155" as="sourcePoint" />
            <mxPoint x="-2912.5" y="3205" as="targetPoint" />
          </mxGeometry>
        </mxCell>
        <mxCell id="UAAGlxL8E-bhWDBI-pss-29" value="" style="endArrow=none;html=1;rounded=0;exitX=1;exitY=0;exitDx=0;exitDy=0;" parent="mxSxCT3K7TG5ama-A4u--1" edge="1">
          <mxGeometry width="50" height="50" relative="1" as="geometry">
            <mxPoint x="-2957.5" y="3295" as="sourcePoint" />
            <mxPoint x="-2912.5" y="3205" as="targetPoint" />
          </mxGeometry>
        </mxCell>
        <mxCell id="UAAGlxL8E-bhWDBI-pss-30" value="&lt;p style=&quot;margin:0px;margin-top:4px;text-align:center;&quot;&gt;&lt;b&gt;펀딩(결제)&amp;nbsp;&lt;/b&gt;&lt;b&gt;Serivce&lt;/b&gt;&lt;/p&gt;&lt;hr size=&quot;1&quot;&gt;&lt;p style=&quot;margin:0px;margin-left:4px;&quot;&gt;+ field: Type&lt;/p&gt;&lt;hr size=&quot;1&quot;&gt;&lt;p style=&quot;margin:0px;margin-left:4px;&quot;&gt;+ method(): Type&lt;/p&gt;" style="verticalAlign=top;align=left;overflow=fill;fontSize=12;fontFamily=Helvetica;html=1;whiteSpace=wrap;shadow=1;" parent="mxSxCT3K7TG5ama-A4u--1" vertex="1">
          <mxGeometry x="-2222.5" y="2820" width="160" height="130" as="geometry" />
        </mxCell>
        <mxCell id="UAAGlxL8E-bhWDBI-pss-31" value="" style="endArrow=none;html=1;rounded=0;entryX=0.013;entryY=0.569;entryDx=0;entryDy=0;entryPerimeter=0;exitX=1;exitY=0.5;exitDx=0;exitDy=0;" parent="mxSxCT3K7TG5ama-A4u--1" source="UAAGlxL8E-bhWDBI-pss-5" target="UAAGlxL8E-bhWDBI-pss-30" edge="1">
          <mxGeometry width="50" height="50" relative="1" as="geometry">
            <mxPoint x="-2447.5" y="3010" as="sourcePoint" />
            <mxPoint x="-2397.5" y="2970" as="targetPoint" />
          </mxGeometry>
        </mxCell>
        <mxCell id="UAAGlxL8E-bhWDBI-pss-32" value="/project_search" style="text;html=1;align=center;verticalAlign=middle;resizable=0;points=[];autosize=1;strokeColor=none;fillColor=none;" parent="mxSxCT3K7TG5ama-A4u--1" vertex="1">
          <mxGeometry x="-3122.5" y="2970" width="110" height="30" as="geometry" />
        </mxCell>
        <mxCell id="UAAGlxL8E-bhWDBI-pss-33" value="/project_main" style="text;html=1;align=center;verticalAlign=middle;resizable=0;points=[];autosize=1;strokeColor=none;fillColor=none;" parent="mxSxCT3K7TG5ama-A4u--1" vertex="1">
          <mxGeometry x="-2909" y="2880" width="100" height="30" as="geometry" />
        </mxCell>
        <mxCell id="UAAGlxL8E-bhWDBI-pss-34" value="/project_login" style="text;html=1;align=center;verticalAlign=middle;resizable=0;points=[];autosize=1;strokeColor=none;fillColor=none;" parent="mxSxCT3K7TG5ama-A4u--1" vertex="1">
          <mxGeometry x="-3122.5" y="2765" width="90" height="30" as="geometry" />
        </mxCell>
        <mxCell id="UAAGlxL8E-bhWDBI-pss-38" value="/Manage_Authentication" style="text;html=1;align=center;verticalAlign=middle;resizable=0;points=[];autosize=1;strokeColor=none;fillColor=none;" parent="mxSxCT3K7TG5ama-A4u--1" vertex="1">
          <mxGeometry x="-2217.5" y="2775" width="150" height="30" as="geometry" />
        </mxCell>
        <mxCell id="UAAGlxL8E-bhWDBI-pss-39" value="/purchase" style="text;html=1;align=center;verticalAlign=middle;resizable=0;points=[];autosize=1;strokeColor=none;fillColor=none;" parent="mxSxCT3K7TG5ama-A4u--1" vertex="1">
          <mxGeometry x="-2177.5" y="2950" width="80" height="30" as="geometry" />
        </mxCell>
        <mxCell id="UAAGlxL8E-bhWDBI-pss-40" value="/notifyRequire" style="text;html=1;align=center;verticalAlign=middle;resizable=0;points=[];autosize=1;strokeColor=none;fillColor=none;" parent="mxSxCT3K7TG5ama-A4u--1" vertex="1">
          <mxGeometry x="-2192.5" y="3130" width="100" height="30" as="geometry" />
        </mxCell>
        <mxCell id="UAAGlxL8E-bhWDBI-pss-41" value="/purchase" style="text;html=1;align=center;verticalAlign=middle;resizable=0;points=[];autosize=1;strokeColor=none;fillColor=none;" parent="mxSxCT3K7TG5ama-A4u--1" vertex="1">
          <mxGeometry x="-2177.5" y="3310" width="80" height="30" as="geometry" />
        </mxCell>
        <mxCell id="8fm8BEINYyHVR1qGwP7b-0" value="&lt;p style=&quot;margin:0px;margin-top:4px;text-align:center;&quot;&gt;&lt;b&gt;로그인화면&amp;nbsp;&lt;/b&gt;&lt;b style=&quot;background-color: initial;&quot;&gt;View&lt;/b&gt;&lt;/p&gt;&lt;hr size=&quot;1&quot;&gt;&lt;p style=&quot;margin:0px;margin-left:4px;&quot;&gt;+ field: Type&lt;/p&gt;&lt;hr size=&quot;1&quot;&gt;&lt;p style=&quot;margin:0px;margin-left:4px;&quot;&gt;+ method(): Type&lt;/p&gt;" style="verticalAlign=top;align=left;overflow=fill;fontSize=12;fontFamily=Helvetica;html=1;whiteSpace=wrap;" parent="mxSxCT3K7TG5ama-A4u--1" vertex="1">
          <mxGeometry x="-3115" y="3020" width="155" height="100" as="geometry" />
        </mxCell>
        <mxCell id="8fm8BEINYyHVR1qGwP7b-1" value="&lt;p style=&quot;margin:0px;margin-top:4px;text-align:center;&quot;&gt;&lt;b&gt;메인 화면&amp;nbsp;&lt;/b&gt;&lt;b style=&quot;background-color: initial;&quot;&gt;View&lt;/b&gt;&lt;/p&gt;&lt;hr size=&quot;1&quot;&gt;&lt;p style=&quot;margin:0px;margin-left:4px;&quot;&gt;+ field: Type&lt;/p&gt;&lt;hr size=&quot;1&quot;&gt;&lt;p style=&quot;margin:0px;margin-left:4px;&quot;&gt;+ method(): Type&lt;/p&gt;" style="verticalAlign=top;align=left;overflow=fill;fontSize=12;fontFamily=Helvetica;html=1;whiteSpace=wrap;" parent="mxSxCT3K7TG5ama-A4u--1" vertex="1">
          <mxGeometry x="-2902.5" y="3130" width="160" height="130" as="geometry" />
        </mxCell>
        <mxCell id="8fm8BEINYyHVR1qGwP7b-2" value="&lt;p style=&quot;margin:0px;margin-top:4px;text-align:center;&quot;&gt;&lt;span&gt;프로젝트(등록, 수정, 예약) 관리&amp;nbsp;&lt;/span&gt;&lt;b style=&quot;background-color: initial;&quot;&gt;View&lt;/b&gt;&lt;/p&gt;&lt;hr size=&quot;1&quot;&gt;&lt;p style=&quot;margin:0px;margin-left:4px;&quot;&gt;+ field: Type&lt;/p&gt;&lt;hr size=&quot;1&quot;&gt;&lt;p style=&quot;margin:0px;margin-left:4px;&quot;&gt;+ method(): Type&lt;/p&gt;" style="verticalAlign=top;align=left;overflow=fill;fontSize=12;fontFamily=Helvetica;html=1;whiteSpace=wrap;fontStyle=1" parent="mxSxCT3K7TG5ama-A4u--1" vertex="1">
          <mxGeometry x="-3120" y="3280" width="235" height="90" as="geometry" />
        </mxCell>
        <mxCell id="8fm8BEINYyHVR1qGwP7b-3" value="&lt;p style=&quot;margin:0px;margin-top:4px;text-align:center;&quot;&gt;&lt;b&gt;회원(구매자, 판매자) 관리&amp;nbsp;&lt;/b&gt;&lt;b style=&quot;background-color: initial;&quot;&gt;View&lt;/b&gt;&lt;/p&gt;&lt;hr size=&quot;1&quot;&gt;&lt;p style=&quot;margin:0px;margin-left:4px;&quot;&gt;+ field: Type&lt;/p&gt;&lt;hr size=&quot;1&quot;&gt;&lt;p style=&quot;margin:0px;margin-left:4px;&quot;&gt;+ method(): Type&lt;/p&gt;" style="verticalAlign=top;align=left;overflow=fill;fontSize=12;fontFamily=Helvetica;html=1;whiteSpace=wrap;" parent="mxSxCT3K7TG5ama-A4u--1" vertex="1">
          <mxGeometry x="-3127.5" y="3160" width="180" height="90" as="geometry" />
        </mxCell>
        <mxCell id="8fm8BEINYyHVR1qGwP7b-4" value="&lt;div&gt;&lt;br&gt;&lt;/div&gt;" style="text;html=1;align=center;verticalAlign=middle;resizable=0;points=[];autosize=1;strokeColor=none;fillColor=none;" parent="mxSxCT3K7TG5ama-A4u--1" vertex="1">
          <mxGeometry x="-2942.5" y="2620" width="20" height="30" as="geometry" />
        </mxCell>
        <mxCell id="8fm8BEINYyHVR1qGwP7b-5" value="&lt;p style=&quot;margin:0px;margin-top:4px;text-align:center;&quot;&gt;&lt;span&gt;커뮤니티(답변, 삭제)&amp;nbsp; 관리&amp;nbsp;&lt;/span&gt;&lt;b style=&quot;background-color: initial;&quot;&gt;View&lt;/b&gt;&lt;/p&gt;&lt;hr size=&quot;1&quot;&gt;&lt;p style=&quot;margin:0px;margin-left:4px;&quot;&gt;+ field: Type&lt;/p&gt;&lt;hr size=&quot;1&quot;&gt;&lt;p style=&quot;margin:0px;margin-left:4px;&quot;&gt;+ method(): Type&lt;/p&gt;" style="verticalAlign=top;align=left;overflow=fill;fontSize=12;fontFamily=Helvetica;html=1;whiteSpace=wrap;fontStyle=1" parent="mxSxCT3K7TG5ama-A4u--1" vertex="1">
          <mxGeometry x="-3120" y="3390" width="235" height="90" as="geometry" />
        </mxCell>
        <mxCell id="8fm8BEINYyHVR1qGwP7b-6" value="&lt;p style=&quot;margin:0px;margin-top:4px;text-align:center;&quot;&gt;&lt;b&gt;인증 Serivce&lt;/b&gt;&lt;/p&gt;&lt;hr size=&quot;1&quot;&gt;&lt;p style=&quot;margin:0px;margin-left:4px;&quot;&gt;+ field: Type&lt;/p&gt;&lt;hr size=&quot;1&quot;&gt;&lt;p style=&quot;margin:0px;margin-left:4px;&quot;&gt;1 파라미터 받기(DTO)&lt;/p&gt;&lt;p style=&quot;margin:0px;margin-left:4px;&quot;&gt;2 입력값검증(유효성검사)&lt;/p&gt;&lt;p style=&quot;margin:0px;margin-left:4px;&quot;&gt;3 인증서비스실행&lt;/p&gt;&lt;p style=&quot;margin:0px;margin-left:4px;&quot;&gt;4 View로 이동(결과값전달)&lt;/p&gt;" style="verticalAlign=top;align=left;overflow=fill;fontSize=12;fontFamily=Helvetica;html=1;whiteSpace=wrap;shadow=1;" parent="mxSxCT3K7TG5ama-A4u--1" vertex="1">
          <mxGeometry x="-2222.5" y="2645" width="160" height="130" as="geometry" />
        </mxCell>
        <mxCell id="8fm8BEINYyHVR1qGwP7b-7" value="&lt;p style=&quot;margin:0px;margin-top:4px;text-align:center;&quot;&gt;&lt;b&gt;프로젝트 Class&lt;/b&gt;&lt;/p&gt;&lt;br&gt;&lt;hr size=&quot;1&quot;&gt;&lt;p style=&quot;margin:0px;margin-left:4px;&quot;&gt;proCode : int&amp;nbsp;&lt;/p&gt;&lt;p style=&quot;margin:0px;margin-left:4px;&quot;&gt;proName : String&amp;nbsp;&amp;nbsp;&lt;/p&gt;&lt;p style=&quot;margin:0px;margin-left:4px;&quot;&gt;sellerId : String&lt;/p&gt;&lt;p style=&quot;margin:0px;margin-left:4px;&quot;&gt;achievedAmount : int&lt;/p&gt;&lt;p style=&quot;margin:0px;margin-left:4px;&quot;&gt;category :&amp;nbsp; String&lt;/p&gt;&lt;p style=&quot;margin:0px;margin-left:4px;&quot;&gt;recruited : int&lt;/p&gt;&lt;p style=&quot;margin:0px;margin-left:4px;&quot;&gt;participated : int&lt;/p&gt;&lt;p style=&quot;margin:0px;margin-left:4px;&quot;&gt;&lt;br&gt;&lt;/p&gt;" style="verticalAlign=top;align=left;overflow=fill;fontSize=12;fontFamily=Helvetica;html=1;whiteSpace=wrap;shadow=1;" parent="mxSxCT3K7TG5ama-A4u--1" vertex="1">
          <mxGeometry x="-3212.5" y="190" width="160" height="232" as="geometry" />
        </mxCell>
        <mxCell id="8fm8BEINYyHVR1qGwP7b-8" value="&lt;p style=&quot;margin:0px;margin-top:4px;text-align:center;&quot;&gt;&lt;b&gt;회원정보(구매자) Class&lt;/b&gt;&lt;/p&gt;&lt;hr size=&quot;1&quot;&gt;&lt;p style=&quot;margin:0px;margin-left:4px;&quot;&gt;id : String&lt;/p&gt;&lt;p style=&quot;margin:0px;margin-left:4px;&quot;&gt;pw : String&lt;/p&gt;&lt;p style=&quot;margin:0px;margin-left:4px;&quot;&gt;name : String&lt;/p&gt;&lt;p style=&quot;margin:0px;margin-left:4px;&quot;&gt;addr&amp;nbsp; : String&lt;/p&gt;&lt;p style=&quot;margin:0px;margin-left:4px;&quot;&gt;tel : int&amp;nbsp;&lt;/p&gt;&lt;p style=&quot;margin:0px;margin-left:4px;&quot;&gt;&lt;br&gt;&lt;/p&gt;" style="verticalAlign=top;align=left;overflow=fill;fontSize=12;fontFamily=Helvetica;html=1;whiteSpace=wrap;shadow=1;" parent="mxSxCT3K7TG5ama-A4u--1" vertex="1">
          <mxGeometry x="-2974" y="190" width="160" height="152" as="geometry" />
        </mxCell>
        <mxCell id="8fm8BEINYyHVR1qGwP7b-9" value="&lt;p style=&quot;margin:0px;margin-top:4px;text-align:center;&quot;&gt;&lt;b&gt;커뮤니티 Class&lt;/b&gt;&lt;/p&gt;&lt;hr size=&quot;1&quot;&gt;&lt;p style=&quot;margin:0px;margin-left:4px;&quot;&gt;postCode: int&lt;/p&gt;&lt;p style=&quot;margin:0px;margin-left:4px;&quot;&gt;proCode: int&lt;/p&gt;&lt;p style=&quot;margin:0px;margin-left:4px;&quot;&gt;id : String&lt;/p&gt;&lt;p style=&quot;margin:0px;margin-left:4px;&quot;&gt;date : date&lt;/p&gt;&lt;p style=&quot;margin:0px;margin-left:4px;&quot;&gt;postTitle: String&lt;/p&gt;&lt;p style=&quot;margin:0px;margin-left:4px;&quot;&gt;postContents : String&lt;/p&gt;&lt;p style=&quot;margin:0px;margin-left:4px;&quot;&gt;starPoint : float&lt;/p&gt;&lt;p style=&quot;margin:0px;margin-left:4px;&quot;&gt;&lt;br&gt;&lt;/p&gt;" style="verticalAlign=top;align=left;overflow=fill;fontSize=12;fontFamily=Helvetica;html=1;whiteSpace=wrap;shadow=1;" parent="mxSxCT3K7TG5ama-A4u--1" vertex="1">
          <mxGeometry x="-2550" y="188" width="160" height="168" as="geometry" />
        </mxCell>
        <mxCell id="8fm8BEINYyHVR1qGwP7b-10" value="&lt;p style=&quot;margin:0px;margin-top:4px;text-align:center;&quot;&gt;&lt;b&gt;주문내역 Class&lt;/b&gt;&lt;/p&gt;&lt;hr size=&quot;1&quot;&gt;&lt;p style=&quot;margin:0px;margin-left:4px;&quot;&gt;orderCode : int&lt;/p&gt;&lt;p style=&quot;margin:0px;margin-left:4px;&quot;&gt;proCode : int&lt;/p&gt;&lt;p style=&quot;margin:0px;margin-left:4px;&quot;&gt;id : String&lt;/p&gt;&lt;p style=&quot;margin:0px;margin-left:4px;&quot;&gt;totalProductAmount : int&lt;/p&gt;&lt;p style=&quot;margin: 0px 0px 0px 4px;&quot;&gt;ProductAmount : int&lt;/p&gt;&lt;p style=&quot;margin: 0px 0px 0px 4px;&quot;&gt;orderCnt : int&lt;/p&gt;&lt;p style=&quot;margin: 0px 0px 0px 4px;&quot;&gt;orderDate : Date&lt;/p&gt;&lt;p style=&quot;margin: 0px 0px 0px 4px;&quot;&gt;orderState : String&lt;/p&gt;&lt;p style=&quot;margin: 0px 0px 0px 4px;&quot;&gt;delivery : int&lt;/p&gt;&lt;p style=&quot;margin:0px;margin-left:4px;&quot;&gt;&lt;br&gt;&lt;/p&gt;" style="verticalAlign=top;align=left;overflow=fill;fontSize=12;fontFamily=Helvetica;html=1;whiteSpace=wrap;shadow=1;" parent="mxSxCT3K7TG5ama-A4u--1" vertex="1">
          <mxGeometry x="-2335" y="204" width="160" height="198" as="geometry" />
        </mxCell>
        <mxCell id="8fm8BEINYyHVR1qGwP7b-11" value="&lt;p style=&quot;margin:0px;margin-top:4px;text-align:center;&quot;&gt;&lt;b&gt;프로젝트 CRUD Class&lt;/b&gt;&lt;/p&gt;&lt;hr size=&quot;1&quot;&gt;&lt;p style=&quot;margin:0px;margin-left:4px;&quot;&gt;&lt;span style=&quot;background-color: initial;&quot;&gt;proCode : int&amp;nbsp;&lt;/span&gt;&lt;/p&gt;&lt;p style=&quot;margin: 0px 0px 0px 4px;&quot;&gt;proName : String&amp;nbsp;&amp;nbsp;&lt;/p&gt;&lt;p style=&quot;margin: 0px 0px 0px 4px;&quot;&gt;sellerId : String&lt;/p&gt;&lt;p style=&quot;margin: 0px 0px 0px 4px;&quot;&gt;achievedAmount : int&lt;/p&gt;&lt;p style=&quot;margin: 0px 0px 0px 4px;&quot;&gt;category :&amp;nbsp; String&lt;/p&gt;&lt;p style=&quot;margin: 0px 0px 0px 4px;&quot;&gt;recruited : int&lt;/p&gt;&lt;p style=&quot;margin: 0px 0px 0px 4px;&quot;&gt;participated : int&lt;/p&gt;&lt;p style=&quot;margin: 0px 0px 0px 4px;&quot;&gt;&lt;br&gt;&lt;/p&gt;&lt;hr size=&quot;1&quot;&gt;&lt;p style=&quot;margin: 0px 0px 0px 4px;&quot;&gt;&lt;span style=&quot;background-color: initial;&quot;&gt;+select() : List&amp;lt;&lt;/span&gt;&lt;span style=&quot;text-align: center; text-wrap: nowrap;&quot;&gt;ProjectDto&lt;/span&gt;&lt;span style=&quot;background-color: initial;&quot;&gt;&amp;gt;&lt;/span&gt;&lt;br&gt;&lt;/p&gt;&lt;p style=&quot;margin: 0px 0px 0px 4px;&quot;&gt;&lt;span style=&quot;background-color: initial;&quot;&gt;&lt;br&gt;&lt;/span&gt;&lt;/p&gt;&lt;p style=&quot;margin: 0px 0px 0px 4px;&quot;&gt;&lt;span style=&quot;background-color: initial;&quot;&gt;+select(int proCode): List&amp;lt;&lt;/span&gt;&lt;span style=&quot;text-align: center; text-wrap: nowrap;&quot;&gt;ProjectDto&lt;/span&gt;&lt;span style=&quot;background-color: initial;&quot;&gt;&amp;gt;&lt;/span&gt;&lt;/p&gt;&lt;p style=&quot;margin: 0px 0px 0px 4px;&quot;&gt;&lt;br&gt;&lt;/p&gt;&lt;p style=&quot;margin: 0px 0px 0px 4px;&quot;&gt;+insert(&lt;span style=&quot;text-align: center; text-wrap: nowrap;&quot;&gt;ProjectDto&lt;/span&gt;&amp;nbsp;dto)&lt;/p&gt;&lt;p style=&quot;margin: 0px 0px 0px 4px;&quot;&gt;: String&lt;/p&gt;&lt;p style=&quot;margin: 0px 0px 0px 4px;&quot;&gt;&lt;br&gt;&lt;/p&gt;&lt;p style=&quot;margin: 0px 0px 0px 4px;&quot;&gt;+update(&lt;span style=&quot;text-align: center; text-wrap: nowrap;&quot;&gt;ProjectDto&lt;/span&gt;&amp;nbsp;dto)&lt;/p&gt;&lt;p style=&quot;margin: 0px 0px 0px 4px;&quot;&gt;:String&lt;/p&gt;&lt;p style=&quot;margin: 0px 0px 0px 4px;&quot;&gt;&lt;br&gt;&lt;/p&gt;&lt;p style=&quot;margin: 0px 0px 0px 4px;&quot;&gt;+delete(int proCode)&lt;/p&gt;&lt;p style=&quot;margin: 0px 0px 0px 4px;&quot;&gt;:String&lt;/p&gt;" style="verticalAlign=top;align=left;overflow=fill;fontSize=12;fontFamily=Helvetica;html=1;whiteSpace=wrap;shadow=1;" parent="mxSxCT3K7TG5ama-A4u--1" vertex="1">
          <mxGeometry x="-3200" y="792" width="160" height="380" as="geometry" />
        </mxCell>
        <mxCell id="8fm8BEINYyHVR1qGwP7b-12" value="&lt;p style=&quot;margin:0px;margin-top:4px;text-align:center;&quot;&gt;&lt;b&gt;구매자테이블 CRUD Class&lt;/b&gt;&lt;/p&gt;&lt;hr size=&quot;1&quot;&gt;&lt;p style=&quot;margin:0px;margin-left:4px;&quot;&gt;&lt;span style=&quot;background-color: initial;&quot;&gt;id : String&lt;/span&gt;&lt;/p&gt;&lt;p style=&quot;margin: 0px 0px 0px 4px;&quot;&gt;pw : String&lt;/p&gt;&lt;p style=&quot;margin: 0px 0px 0px 4px;&quot;&gt;name : String&lt;/p&gt;&lt;p style=&quot;margin: 0px 0px 0px 4px;&quot;&gt;addr&amp;nbsp; : String&lt;/p&gt;&lt;p style=&quot;margin: 0px 0px 0px 4px;&quot;&gt;tel : int&amp;nbsp;&lt;/p&gt;&lt;hr size=&quot;1&quot;&gt;&lt;p style=&quot;margin: 0px 0px 0px 4px;&quot;&gt;&lt;span style=&quot;background-color: initial;&quot;&gt;+select() :&amp;nbsp;&lt;/span&gt;&lt;span style=&quot;background-color: initial;&quot;&gt;List&amp;lt;&lt;/span&gt;&lt;span style=&quot;text-align: center; text-wrap: nowrap;&quot;&gt;Member_BuyerDto&lt;/span&gt;&lt;span style=&quot;background-color: initial;&quot;&gt;&amp;gt;&lt;/span&gt;&lt;br&gt;&lt;/p&gt;&lt;p style=&quot;margin: 0px 0px 0px 4px;&quot;&gt;&lt;br&gt;&lt;/p&gt;&lt;p style=&quot;margin: 0px 0px 0px 4px;&quot;&gt;&lt;span style=&quot;background-color: initial;&quot;&gt;&lt;br&gt;&lt;/span&gt;&lt;/p&gt;&lt;p style=&quot;margin: 0px 0px 0px 4px;&quot;&gt;&lt;span style=&quot;background-color: initial;&quot;&gt;+insert(&lt;/span&gt;Member_BuyerDto&lt;span style=&quot;background-color: initial;&quot;&gt;):&lt;/span&gt;&lt;/p&gt;&lt;p style=&quot;margin: 0px 0px 0px 4px;&quot;&gt;String&lt;/p&gt;&lt;p style=&quot;margin: 0px 0px 0px 4px;&quot;&gt;&lt;br&gt;&lt;/p&gt;&lt;p style=&quot;margin: 0px 0px 0px 4px;&quot;&gt;+update(Member_BuyerDto)&lt;/p&gt;&lt;p style=&quot;margin: 0px 0px 0px 4px;&quot;&gt;:String&lt;/p&gt;&lt;p style=&quot;margin: 0px 0px 0px 4px;&quot;&gt;&lt;br&gt;&lt;/p&gt;&lt;p style=&quot;margin: 0px 0px 0px 4px;&quot;&gt;+delete(String id):&lt;/p&gt;&lt;p style=&quot;margin: 0px 0px 0px 4px;&quot;&gt;String&lt;/p&gt;" style="verticalAlign=top;align=left;overflow=fill;fontSize=12;fontFamily=Helvetica;html=1;whiteSpace=wrap;shadow=1;" parent="mxSxCT3K7TG5ama-A4u--1" vertex="1">
          <mxGeometry x="-2930" y="772" width="160" height="290" as="geometry" />
        </mxCell>
        <mxCell id="8fm8BEINYyHVR1qGwP7b-13" value="&lt;p style=&quot;margin:0px;margin-top:4px;text-align:center;&quot;&gt;&lt;b&gt;주문 CRUD Class&lt;/b&gt;&lt;/p&gt;&lt;hr size=&quot;1&quot;&gt;&lt;p style=&quot;margin:0px;margin-left:4px;&quot;&gt;&lt;span style=&quot;background-color: initial;&quot;&gt;orderCode : int&lt;/span&gt;&lt;/p&gt;&lt;p style=&quot;margin: 0px 0px 0px 4px;&quot;&gt;proCode : int&lt;/p&gt;&lt;p style=&quot;margin: 0px 0px 0px 4px;&quot;&gt;id : String&lt;/p&gt;&lt;p style=&quot;margin: 0px 0px 0px 4px;&quot;&gt;totalProductCost : int&lt;/p&gt;&lt;p style=&quot;margin: 0px 0px 0px 4px;&quot;&gt;ProductCost : int&lt;/p&gt;&lt;p style=&quot;margin: 0px 0px 0px 4px;&quot;&gt;orderCnt : int&lt;/p&gt;&lt;p style=&quot;margin: 0px 0px 0px 4px;&quot;&gt;orderDate : Date&lt;/p&gt;&lt;p style=&quot;margin: 0px 0px 0px 4px;&quot;&gt;orderState : String&lt;/p&gt;&lt;p style=&quot;margin: 0px 0px 0px 4px;&quot;&gt;delivery : int&lt;/p&gt;&lt;hr size=&quot;1&quot;&gt;&lt;p style=&quot;margin: 0px 0px 0px 4px;&quot;&gt;&lt;span style=&quot;background-color: initial;&quot;&gt;+select()&amp;nbsp;&lt;/span&gt;&lt;/p&gt;&lt;p style=&quot;margin: 0px 0px 0px 4px;&quot;&gt;&lt;span style=&quot;background-color: initial;&quot;&gt;: List&amp;lt;&lt;/span&gt;&lt;span style=&quot;text-align: center; text-wrap: nowrap;&quot;&gt;OrderDto&lt;/span&gt;&lt;span style=&quot;background-color: initial;&quot;&gt;&amp;gt;&lt;/span&gt;&lt;br&gt;&lt;/p&gt;&lt;p style=&quot;margin: 0px 0px 0px 4px;&quot;&gt;&lt;span style=&quot;background-color: initial;&quot;&gt;&lt;br&gt;&lt;/span&gt;&lt;/p&gt;&lt;p style=&quot;margin: 0px 0px 0px 4px;&quot;&gt;&lt;span style=&quot;background-color: initial;&quot;&gt;+select(int orderCode): List&amp;lt;&lt;/span&gt;&lt;span style=&quot;text-align: center; text-wrap: nowrap;&quot;&gt;OrderDto&lt;/span&gt;&lt;span style=&quot;background-color: initial;&quot;&gt;&amp;gt;&lt;/span&gt;&lt;/p&gt;&lt;p style=&quot;margin: 0px 0px 0px 4px;&quot;&gt;&lt;span style=&quot;background-color: initial;&quot;&gt;&lt;br&gt;&lt;/span&gt;&lt;/p&gt;&lt;p style=&quot;margin: 0px 0px 0px 4px;&quot;&gt;+insert(&lt;span style=&quot;text-align: center; text-wrap: nowrap;&quot;&gt;OrderDto&amp;nbsp;&lt;/span&gt;dto)&lt;/p&gt;&lt;p style=&quot;margin: 0px 0px 0px 4px;&quot;&gt;:String&lt;/p&gt;&lt;p style=&quot;margin: 0px 0px 0px 4px;&quot;&gt;&lt;br&gt;&lt;/p&gt;&lt;p style=&quot;margin: 0px 0px 0px 4px;&quot;&gt;+update(&lt;span style=&quot;text-align: center; text-wrap: nowrap;&quot;&gt;OrderDto&amp;nbsp;&lt;/span&gt;dto)&lt;/p&gt;&lt;p style=&quot;margin: 0px 0px 0px 4px;&quot;&gt;:String&lt;/p&gt;&lt;p style=&quot;margin: 0px 0px 0px 4px;&quot;&gt;&lt;br&gt;&lt;/p&gt;&lt;p style=&quot;margin: 0px 0px 0px 4px;&quot;&gt;&lt;span style=&quot;background-color: initial;&quot;&gt;+delete(int orderCode)&lt;/span&gt;&lt;/p&gt;&lt;p style=&quot;margin: 0px 0px 0px 4px;&quot;&gt;&lt;span style=&quot;background-color: initial;&quot;&gt;:String&lt;/span&gt;&lt;br&gt;&lt;/p&gt;" style="verticalAlign=top;align=left;overflow=fill;fontSize=12;fontFamily=Helvetica;html=1;whiteSpace=wrap;shadow=1;" parent="mxSxCT3K7TG5ama-A4u--1" vertex="1">
          <mxGeometry x="-1960" y="776" width="160" height="446" as="geometry" />
        </mxCell>
        <mxCell id="8fm8BEINYyHVR1qGwP7b-14" value="&lt;p style=&quot;margin:0px;margin-top:4px;text-align:center;&quot;&gt;&lt;b&gt;알림 CRUD Class&lt;/b&gt;&lt;/p&gt;&lt;p style=&quot;margin:0px;margin-left:4px;&quot;&gt;&lt;br&gt;&lt;/p&gt;&lt;p style=&quot;margin: 0px 0px 0px 4px;&quot;&gt;notifyCode : int&lt;/p&gt;&lt;p style=&quot;margin: 0px 0px 0px 4px;&quot;&gt;notifyDate : Date&lt;/p&gt;&lt;p style=&quot;margin: 0px 0px 0px 4px;&quot;&gt;id : String&lt;/p&gt;&lt;p style=&quot;margin: 0px 0px 0px 4px;&quot;&gt;&lt;br&gt;&lt;/p&gt;&lt;hr size=&quot;1&quot;&gt;&lt;p style=&quot;margin: 0px 0px 0px 4px;&quot;&gt;&lt;span style=&quot;background-color: initial;&quot;&gt;+select()&amp;nbsp;&lt;/span&gt;&lt;/p&gt;&lt;p style=&quot;margin: 0px 0px 0px 4px;&quot;&gt;&lt;span style=&quot;background-color: initial;&quot;&gt;: List&amp;lt;&lt;/span&gt;&lt;span style=&quot;text-align: center; text-wrap: nowrap;&quot;&gt;NotifyDto&lt;/span&gt;&lt;span style=&quot;background-color: initial;&quot;&gt;&amp;gt;&lt;/span&gt;&lt;br&gt;&lt;/p&gt;&lt;p style=&quot;margin: 0px 0px 0px 4px;&quot;&gt;&lt;span style=&quot;background-color: initial;&quot;&gt;&lt;br&gt;&lt;/span&gt;&lt;/p&gt;&lt;p style=&quot;margin: 0px 0px 0px 4px;&quot;&gt;&lt;span style=&quot;background-color: initial;&quot;&gt;+select(int orderCode): List&amp;lt;&lt;/span&gt;&lt;span style=&quot;text-align: center; text-wrap: nowrap;&quot;&gt;NotifyDto&lt;/span&gt;&lt;span style=&quot;background-color: initial;&quot;&gt;&amp;gt;&lt;/span&gt;&lt;/p&gt;&lt;p style=&quot;margin: 0px 0px 0px 4px;&quot;&gt;&lt;span style=&quot;background-color: initial;&quot;&gt;&lt;br&gt;&lt;/span&gt;&lt;/p&gt;&lt;p style=&quot;margin: 0px 0px 0px 4px;&quot;&gt;+insert(&lt;span style=&quot;text-align: center; text-wrap: nowrap;&quot;&gt;NotifyDto&amp;nbsp;&lt;/span&gt;dto)&lt;/p&gt;&lt;p style=&quot;margin: 0px 0px 0px 4px;&quot;&gt;:String&lt;/p&gt;&lt;p style=&quot;margin: 0px 0px 0px 4px;&quot;&gt;&lt;br&gt;&lt;/p&gt;&lt;p style=&quot;margin: 0px 0px 0px 4px;&quot;&gt;+update(&lt;span style=&quot;text-align: center; text-wrap: nowrap;&quot;&gt;NotifyDto&amp;nbsp;&lt;/span&gt;dto)&lt;/p&gt;&lt;p style=&quot;margin: 0px 0px 0px 4px;&quot;&gt;:String&lt;/p&gt;&lt;p style=&quot;margin: 0px 0px 0px 4px;&quot;&gt;&lt;br&gt;&lt;/p&gt;&lt;p style=&quot;margin: 0px 0px 0px 4px;&quot;&gt;&lt;span style=&quot;background-color: initial;&quot;&gt;+delete(int notifyCode)&lt;/span&gt;&lt;/p&gt;&lt;p style=&quot;margin: 0px 0px 0px 4px;&quot;&gt;&lt;span style=&quot;background-color: initial;&quot;&gt;:String&lt;/span&gt;&lt;/p&gt;" style="verticalAlign=top;align=left;overflow=fill;fontSize=12;fontFamily=Helvetica;html=1;whiteSpace=wrap;shadow=1;" parent="mxSxCT3K7TG5ama-A4u--1" vertex="1">
          <mxGeometry x="-1620" y="776" width="160" height="336" as="geometry" />
        </mxCell>
        <mxCell id="8fm8BEINYyHVR1qGwP7b-15" value="프로젝트&lt;br&gt;테이블" style="shape=cylinder3;whiteSpace=wrap;html=1;boundedLbl=1;backgroundOutline=1;size=15;" parent="mxSxCT3K7TG5ama-A4u--1" vertex="1">
          <mxGeometry x="-3004" y="796" width="50" height="70" as="geometry" />
        </mxCell>
        <mxCell id="8fm8BEINYyHVR1qGwP7b-16" value="회원&lt;br&gt;테이블" style="shape=cylinder3;whiteSpace=wrap;html=1;boundedLbl=1;backgroundOutline=1;size=15;" parent="mxSxCT3K7TG5ama-A4u--1" vertex="1">
          <mxGeometry x="-2705" y="792" width="50" height="70" as="geometry" />
        </mxCell>
        <mxCell id="8fm8BEINYyHVR1qGwP7b-17" value="대여&lt;br&gt;테이블" style="shape=cylinder3;whiteSpace=wrap;html=1;boundedLbl=1;backgroundOutline=1;size=15;" parent="mxSxCT3K7TG5ama-A4u--1" vertex="1">
          <mxGeometry x="-1775" y="796" width="50" height="70" as="geometry" />
        </mxCell>
        <mxCell id="8fm8BEINYyHVR1qGwP7b-18" style="edgeStyle=orthogonalEdgeStyle;rounded=0;orthogonalLoop=1;jettySize=auto;html=1;exitX=0;exitY=0;exitDx=0;exitDy=45;exitPerimeter=0;entryX=1;entryY=0.5;entryDx=0;entryDy=0;endArrow=none;endFill=0;" parent="mxSxCT3K7TG5ama-A4u--1" source="8fm8BEINYyHVR1qGwP7b-19" target="8fm8BEINYyHVR1qGwP7b-14" edge="1">
          <mxGeometry relative="1" as="geometry" />
        </mxCell>
        <mxCell id="8fm8BEINYyHVR1qGwP7b-19" value="예약&lt;br&gt;테이블" style="shape=cylinder3;whiteSpace=wrap;html=1;boundedLbl=1;backgroundOutline=1;size=15;" parent="mxSxCT3K7TG5ama-A4u--1" vertex="1">
          <mxGeometry x="-1430" y="900" width="50" height="70" as="geometry" />
        </mxCell>
        <mxCell id="8fm8BEINYyHVR1qGwP7b-20" value="Dto" style="text;html=1;align=center;verticalAlign=middle;resizable=0;points=[];autosize=1;strokeColor=none;fillColor=none;" parent="mxSxCT3K7TG5ama-A4u--1" vertex="1">
          <mxGeometry x="-3220" y="130" width="40" height="30" as="geometry" />
        </mxCell>
        <mxCell id="8fm8BEINYyHVR1qGwP7b-21" value="Dao" style="text;html=1;align=center;verticalAlign=middle;resizable=0;points=[];autosize=1;strokeColor=none;fillColor=none;" parent="mxSxCT3K7TG5ama-A4u--1" vertex="1">
          <mxGeometry x="-3205" y="702" width="50" height="30" as="geometry" />
        </mxCell>
        <mxCell id="8fm8BEINYyHVR1qGwP7b-22" value="ProjectDto" style="text;html=1;align=center;verticalAlign=middle;resizable=0;points=[];autosize=1;strokeColor=none;fillColor=none;" parent="mxSxCT3K7TG5ama-A4u--1" vertex="1">
          <mxGeometry x="-3180" y="158" width="80" height="30" as="geometry" />
        </mxCell>
        <mxCell id="8fm8BEINYyHVR1qGwP7b-23" value="Member_BuyerDto" style="text;html=1;align=center;verticalAlign=middle;resizable=0;points=[];autosize=1;strokeColor=none;fillColor=none;" parent="mxSxCT3K7TG5ama-A4u--1" vertex="1">
          <mxGeometry x="-2954" y="158" width="120" height="30" as="geometry" />
        </mxCell>
        <mxCell id="8fm8BEINYyHVR1qGwP7b-24" value="CommunityDto" style="text;html=1;align=center;verticalAlign=middle;resizable=0;points=[];autosize=1;strokeColor=none;fillColor=none;" parent="mxSxCT3K7TG5ama-A4u--1" vertex="1">
          <mxGeometry x="-2520" y="160" width="100" height="30" as="geometry" />
        </mxCell>
        <mxCell id="8fm8BEINYyHVR1qGwP7b-25" value="OrderDto" style="text;html=1;align=center;verticalAlign=middle;resizable=0;points=[];autosize=1;strokeColor=none;fillColor=none;" parent="mxSxCT3K7TG5ama-A4u--1" vertex="1">
          <mxGeometry x="-2300" y="170" width="70" height="30" as="geometry" />
        </mxCell>
        <mxCell id="8fm8BEINYyHVR1qGwP7b-26" value="ProjectDao" style="text;html=1;align=center;verticalAlign=middle;resizable=0;points=[];autosize=1;strokeColor=none;fillColor=none;" parent="mxSxCT3K7TG5ama-A4u--1" vertex="1">
          <mxGeometry x="-3212.5" y="742" width="80" height="30" as="geometry" />
        </mxCell>
        <mxCell id="8fm8BEINYyHVR1qGwP7b-27" value="Member_BuyerDao" style="text;html=1;align=center;verticalAlign=middle;resizable=0;points=[];autosize=1;strokeColor=none;fillColor=none;" parent="mxSxCT3K7TG5ama-A4u--1" vertex="1">
          <mxGeometry x="-2930" y="742" width="130" height="30" as="geometry" />
        </mxCell>
        <mxCell id="8fm8BEINYyHVR1qGwP7b-28" value="" style="endArrow=none;html=1;rounded=0;exitX=0.988;exitY=0.393;exitDx=0;exitDy=0;exitPerimeter=0;entryX=0;entryY=0.5;entryDx=0;entryDy=0;entryPerimeter=0;" parent="mxSxCT3K7TG5ama-A4u--1" source="8fm8BEINYyHVR1qGwP7b-11" target="8fm8BEINYyHVR1qGwP7b-15" edge="1">
          <mxGeometry width="50" height="50" relative="1" as="geometry">
            <mxPoint x="-2655" y="882" as="sourcePoint" />
            <mxPoint x="-3015" y="832" as="targetPoint" />
          </mxGeometry>
        </mxCell>
        <mxCell id="8fm8BEINYyHVR1qGwP7b-29" value="&lt;p style=&quot;margin:0px;margin-top:4px;text-align:center;&quot;&gt;&lt;b&gt;회원정보(판매자) Class&lt;/b&gt;&lt;/p&gt;&lt;hr size=&quot;1&quot;&gt;&lt;p style=&quot;margin: 0px 0px 0px 4px;&quot;&gt;id : String&lt;/p&gt;&lt;p style=&quot;margin: 0px 0px 0px 4px;&quot;&gt;pw : String&lt;/p&gt;&lt;p style=&quot;margin: 0px 0px 0px 4px;&quot;&gt;name : String&lt;/p&gt;&lt;p style=&quot;margin: 0px 0px 0px 4px;&quot;&gt;addr&amp;nbsp; : String&lt;/p&gt;&lt;p style=&quot;margin: 0px 0px 0px 4px;&quot;&gt;tel : int&amp;nbsp;&lt;/p&gt;&lt;p style=&quot;margin:0px;margin-left:4px;&quot;&gt;&lt;br&gt;&lt;/p&gt;" style="verticalAlign=top;align=left;overflow=fill;fontSize=12;fontFamily=Helvetica;html=1;whiteSpace=wrap;shadow=1;" parent="mxSxCT3K7TG5ama-A4u--1" vertex="1">
          <mxGeometry x="-2775" y="188" width="160" height="154" as="geometry" />
        </mxCell>
        <mxCell id="8fm8BEINYyHVR1qGwP7b-30" value="&lt;p style=&quot;margin:0px;margin-top:4px;text-align:center;&quot;&gt;&lt;b&gt;알림 내역 Class&lt;/b&gt;&lt;/p&gt;&lt;hr size=&quot;1&quot;&gt;&lt;p style=&quot;margin:0px;margin-left:4px;&quot;&gt;notifyCode : int&lt;/p&gt;&lt;p style=&quot;margin:0px;margin-left:4px;&quot;&gt;notifyDate : Date&lt;/p&gt;&lt;p style=&quot;margin:0px;margin-left:4px;&quot;&gt;id : String&lt;/p&gt;&lt;p style=&quot;margin:0px;margin-left:4px;&quot;&gt;&lt;br&gt;&lt;/p&gt;" style="verticalAlign=top;align=left;overflow=fill;fontSize=12;fontFamily=Helvetica;html=1;whiteSpace=wrap;shadow=1;" parent="mxSxCT3K7TG5ama-A4u--1" vertex="1">
          <mxGeometry x="-2085" y="204" width="160" height="198" as="geometry" />
        </mxCell>
        <mxCell id="8fm8BEINYyHVR1qGwP7b-31" value="Member_SellerDto" style="text;html=1;align=center;verticalAlign=middle;resizable=0;points=[];autosize=1;strokeColor=none;fillColor=none;" parent="mxSxCT3K7TG5ama-A4u--1" vertex="1">
          <mxGeometry x="-2760" y="160" width="120" height="30" as="geometry" />
        </mxCell>
        <mxCell id="8fm8BEINYyHVR1qGwP7b-32" value="NotifyDto" style="text;html=1;align=center;verticalAlign=middle;resizable=0;points=[];autosize=1;strokeColor=none;fillColor=none;" parent="mxSxCT3K7TG5ama-A4u--1" vertex="1">
          <mxGeometry x="-2070" y="170" width="70" height="30" as="geometry" />
        </mxCell>
        <mxCell id="8fm8BEINYyHVR1qGwP7b-33" value="&lt;p style=&quot;margin:0px;margin-top:4px;text-align:center;&quot;&gt;&lt;b&gt;판매자테이블 CRUD Class&lt;/b&gt;&lt;/p&gt;&lt;hr size=&quot;1&quot;&gt;&lt;p style=&quot;margin:0px;margin-left:4px;&quot;&gt;&lt;span style=&quot;background-color: initial;&quot;&gt;id : String&lt;/span&gt;&lt;br&gt;&lt;/p&gt;&lt;p style=&quot;margin: 0px 0px 0px 4px;&quot;&gt;pw : String&lt;/p&gt;&lt;p style=&quot;margin: 0px 0px 0px 4px;&quot;&gt;name : String&lt;/p&gt;&lt;p style=&quot;margin: 0px 0px 0px 4px;&quot;&gt;addr&amp;nbsp; : String&lt;/p&gt;&lt;p style=&quot;margin: 0px 0px 0px 4px;&quot;&gt;tel : int&amp;nbsp;&lt;/p&gt;&lt;hr size=&quot;1&quot;&gt;&lt;p style=&quot;margin: 0px 0px 0px 4px;&quot;&gt;&lt;span style=&quot;background-color: initial;&quot;&gt;+select() :&amp;nbsp;&lt;/span&gt;&lt;span style=&quot;background-color: initial;&quot;&gt;List&amp;lt;&lt;/span&gt;&lt;span style=&quot;text-align: center; text-wrap: nowrap;&quot;&gt;Member_SellerDto&lt;/span&gt;&lt;span style=&quot;background-color: initial;&quot;&gt;&amp;gt;&lt;/span&gt;&lt;br&gt;&lt;/p&gt;&lt;p style=&quot;margin: 0px 0px 0px 4px;&quot;&gt;&lt;br&gt;&lt;/p&gt;&lt;p style=&quot;margin: 0px 0px 0px 4px;&quot;&gt;&lt;span style=&quot;background-color: initial;&quot;&gt;&lt;br&gt;&lt;/span&gt;&lt;/p&gt;&lt;p style=&quot;margin: 0px 0px 0px 4px;&quot;&gt;&lt;span style=&quot;background-color: initial;&quot;&gt;+insert(&lt;/span&gt;&lt;span style=&quot;text-align: center; text-wrap: nowrap;&quot;&gt;Member_SellerDto&lt;/span&gt;&lt;span style=&quot;background-color: initial;&quot;&gt;):&lt;/span&gt;&lt;/p&gt;&lt;p style=&quot;margin: 0px 0px 0px 4px;&quot;&gt;String&lt;/p&gt;&lt;p style=&quot;margin: 0px 0px 0px 4px;&quot;&gt;&lt;br&gt;&lt;/p&gt;&lt;p style=&quot;margin: 0px 0px 0px 4px;&quot;&gt;+update(&lt;span style=&quot;text-align: center; text-wrap: nowrap;&quot;&gt;Member_SellerDto&lt;/span&gt;)&lt;/p&gt;&lt;p style=&quot;margin: 0px 0px 0px 4px;&quot;&gt;:String&lt;/p&gt;&lt;p style=&quot;margin: 0px 0px 0px 4px;&quot;&gt;&lt;br&gt;&lt;/p&gt;&lt;p style=&quot;margin: 0px 0px 0px 4px;&quot;&gt;+delete(String id):&lt;/p&gt;&lt;p style=&quot;margin: 0px 0px 0px 4px;&quot;&gt;String&lt;/p&gt;" style="verticalAlign=top;align=left;overflow=fill;fontSize=12;fontFamily=Helvetica;html=1;whiteSpace=wrap;shadow=1;" parent="mxSxCT3K7TG5ama-A4u--1" vertex="1">
          <mxGeometry x="-2605" y="766" width="160" height="296" as="geometry" />
        </mxCell>
        <mxCell id="8fm8BEINYyHVR1qGwP7b-34" value="회원&lt;br&gt;테이블" style="shape=cylinder3;whiteSpace=wrap;html=1;boundedLbl=1;backgroundOutline=1;size=15;" parent="mxSxCT3K7TG5ama-A4u--1" vertex="1">
          <mxGeometry x="-2375" y="832" width="50" height="70" as="geometry" />
        </mxCell>
        <mxCell id="8fm8BEINYyHVR1qGwP7b-35" value="&lt;p style=&quot;margin:0px;margin-top:4px;text-align:center;&quot;&gt;&lt;b&gt;커뮤니티 Class&lt;/b&gt;&lt;/p&gt;&lt;hr size=&quot;1&quot;&gt;&lt;p style=&quot;margin:0px;margin-left:4px;&quot;&gt;&lt;span style=&quot;background-color: initial;&quot;&gt;postCode: int&lt;/span&gt;&lt;/p&gt;&lt;p style=&quot;margin: 0px 0px 0px 4px;&quot;&gt;proCode: int&lt;/p&gt;&lt;p style=&quot;margin: 0px 0px 0px 4px;&quot;&gt;id : String&lt;/p&gt;&lt;p style=&quot;margin: 0px 0px 0px 4px;&quot;&gt;date : date&lt;/p&gt;&lt;p style=&quot;margin: 0px 0px 0px 4px;&quot;&gt;postTitle: String&lt;/p&gt;&lt;p style=&quot;margin: 0px 0px 0px 4px;&quot;&gt;postContents : String&lt;/p&gt;&lt;p style=&quot;margin: 0px 0px 0px 4px;&quot;&gt;starPoint : float&lt;/p&gt;&lt;p style=&quot;margin: 0px 0px 0px 4px;&quot;&gt;&lt;br&gt;&lt;/p&gt;&lt;hr size=&quot;1&quot;&gt;&lt;p style=&quot;margin: 0px 0px 0px 4px;&quot;&gt;&lt;span style=&quot;background-color: initial;&quot;&gt;+select()&amp;nbsp;&lt;/span&gt;&lt;/p&gt;&lt;p style=&quot;margin: 0px 0px 0px 4px;&quot;&gt;&lt;span style=&quot;background-color: initial;&quot;&gt;: List&amp;lt;&lt;/span&gt;&lt;span style=&quot;text-align: center; text-wrap: nowrap;&quot;&gt;CommunityDto&lt;/span&gt;&lt;span style=&quot;background-color: initial;&quot;&gt;&amp;gt;&lt;/span&gt;&lt;br&gt;&lt;/p&gt;&lt;p style=&quot;margin: 0px 0px 0px 4px;&quot;&gt;&lt;span style=&quot;background-color: initial;&quot;&gt;&lt;br&gt;&lt;/span&gt;&lt;/p&gt;&lt;p style=&quot;margin: 0px 0px 0px 4px;&quot;&gt;&lt;span style=&quot;background-color: initial;&quot;&gt;+select(int postCode): List&amp;lt;&lt;/span&gt;&lt;span style=&quot;text-align: center; text-wrap: nowrap;&quot;&gt;CommunityDto&lt;/span&gt;&lt;span style=&quot;background-color: initial;&quot;&gt;&amp;gt;&lt;/span&gt;&lt;/p&gt;&lt;p style=&quot;margin: 0px 0px 0px 4px;&quot;&gt;&lt;span style=&quot;background-color: initial;&quot;&gt;&lt;br&gt;&lt;/span&gt;&lt;/p&gt;&lt;p style=&quot;margin: 0px 0px 0px 4px;&quot;&gt;+insert(&lt;span style=&quot;text-align: center; text-wrap: nowrap;&quot;&gt;CommunityDto&amp;nbsp;&lt;/span&gt;dto)&lt;/p&gt;&lt;p style=&quot;margin: 0px 0px 0px 4px;&quot;&gt;:String&lt;/p&gt;&lt;p style=&quot;margin: 0px 0px 0px 4px;&quot;&gt;&lt;br&gt;&lt;/p&gt;&lt;p style=&quot;margin: 0px 0px 0px 4px;&quot;&gt;+update(&lt;span style=&quot;text-align: center; text-wrap: nowrap;&quot;&gt;CommunityDto&amp;nbsp;&lt;/span&gt;dto)&lt;/p&gt;&lt;p style=&quot;margin: 0px 0px 0px 4px;&quot;&gt;:String&lt;/p&gt;&lt;p style=&quot;margin: 0px 0px 0px 4px;&quot;&gt;&lt;br&gt;&lt;/p&gt;&lt;p style=&quot;margin: 0px 0px 0px 4px;&quot;&gt;+delete(int postCode)&lt;/p&gt;&lt;p style=&quot;margin: 0px 0px 0px 4px;&quot;&gt;:String&lt;/p&gt;" style="verticalAlign=top;align=left;overflow=fill;fontSize=12;fontFamily=Helvetica;html=1;whiteSpace=wrap;shadow=1;" parent="mxSxCT3K7TG5ama-A4u--1" vertex="1">
          <mxGeometry x="-2275" y="786" width="160" height="436" as="geometry" />
        </mxCell>
        <mxCell id="8fm8BEINYyHVR1qGwP7b-36" value="회원&lt;br&gt;테이블" style="shape=cylinder3;whiteSpace=wrap;html=1;boundedLbl=1;backgroundOutline=1;size=15;" parent="mxSxCT3K7TG5ama-A4u--1" vertex="1">
          <mxGeometry x="-2065" y="792" width="50" height="70" as="geometry" />
        </mxCell>
        <mxCell id="8fm8BEINYyHVR1qGwP7b-37" style="edgeStyle=orthogonalEdgeStyle;rounded=0;orthogonalLoop=1;jettySize=auto;html=1;exitX=0;exitY=0.5;exitDx=0;exitDy=0;exitPerimeter=0;entryX=0.993;entryY=0.402;entryDx=0;entryDy=0;entryPerimeter=0;endArrow=none;endFill=0;" parent="mxSxCT3K7TG5ama-A4u--1" target="8fm8BEINYyHVR1qGwP7b-13" edge="1">
          <mxGeometry relative="1" as="geometry">
            <mxPoint x="-1775" y="830.9999999999999" as="sourcePoint" />
          </mxGeometry>
        </mxCell>
        <mxCell id="8fm8BEINYyHVR1qGwP7b-38" style="edgeStyle=orthogonalEdgeStyle;rounded=0;orthogonalLoop=1;jettySize=auto;html=1;exitX=0;exitY=0.5;exitDx=0;exitDy=0;exitPerimeter=0;entryX=0.969;entryY=0.367;entryDx=0;entryDy=0;entryPerimeter=0;endArrow=none;endFill=0;" parent="mxSxCT3K7TG5ama-A4u--1" source="8fm8BEINYyHVR1qGwP7b-16" target="8fm8BEINYyHVR1qGwP7b-12" edge="1">
          <mxGeometry relative="1" as="geometry" />
        </mxCell>
        <mxCell id="8fm8BEINYyHVR1qGwP7b-39" style="edgeStyle=orthogonalEdgeStyle;rounded=0;orthogonalLoop=1;jettySize=auto;html=1;entryX=1.002;entryY=0.368;entryDx=0;entryDy=0;entryPerimeter=0;endArrow=none;endFill=0;" parent="mxSxCT3K7TG5ama-A4u--1" source="8fm8BEINYyHVR1qGwP7b-34" target="8fm8BEINYyHVR1qGwP7b-33" edge="1">
          <mxGeometry relative="1" as="geometry" />
        </mxCell>
        <mxCell id="8fm8BEINYyHVR1qGwP7b-40" style="edgeStyle=orthogonalEdgeStyle;rounded=0;orthogonalLoop=1;jettySize=auto;html=1;exitX=0;exitY=0.5;exitDx=0;exitDy=0;exitPerimeter=0;entryX=1.004;entryY=0.445;entryDx=0;entryDy=0;entryPerimeter=0;endArrow=none;endFill=0;" parent="mxSxCT3K7TG5ama-A4u--1" source="8fm8BEINYyHVR1qGwP7b-36" target="8fm8BEINYyHVR1qGwP7b-35" edge="1">
          <mxGeometry relative="1" as="geometry" />
        </mxCell>
        <mxCell id="8fm8BEINYyHVR1qGwP7b-41" value="Member_SellerDao" style="text;html=1;align=center;verticalAlign=middle;resizable=0;points=[];autosize=1;strokeColor=none;fillColor=none;" parent="mxSxCT3K7TG5ama-A4u--1" vertex="1">
          <mxGeometry x="-2605" y="726" width="130" height="30" as="geometry" />
        </mxCell>
        <mxCell id="8fm8BEINYyHVR1qGwP7b-42" value="CommunityDao" style="text;html=1;align=center;verticalAlign=middle;resizable=0;points=[];autosize=1;strokeColor=none;fillColor=none;" parent="mxSxCT3K7TG5ama-A4u--1" vertex="1">
          <mxGeometry x="-2280" y="756" width="110" height="30" as="geometry" />
        </mxCell>
        <mxCell id="8fm8BEINYyHVR1qGwP7b-43" value="OrderDao" style="text;html=1;align=center;verticalAlign=middle;resizable=0;points=[];autosize=1;strokeColor=none;fillColor=none;" parent="mxSxCT3K7TG5ama-A4u--1" vertex="1">
          <mxGeometry x="-1965" y="746" width="80" height="30" as="geometry" />
        </mxCell>
        <mxCell id="8fm8BEINYyHVR1qGwP7b-44" value="NotifyDao" style="text;html=1;align=center;verticalAlign=middle;resizable=0;points=[];autosize=1;strokeColor=none;fillColor=none;" parent="mxSxCT3K7TG5ama-A4u--1" vertex="1">
          <mxGeometry x="-1625" y="746" width="80" height="30" as="geometry" />
        </mxCell>
        <mxCell id="8fm8BEINYyHVR1qGwP7b-45" value="Persistence Layer(영속 계층)&lt;br&gt;- DB 연결영역, 왠만해선 바뀌지 않는다" style="rounded=0;whiteSpace=wrap;html=1;" parent="mxSxCT3K7TG5ama-A4u--1" vertex="1">
          <mxGeometry x="-3250" y="10" width="1300" height="50" as="geometry" />
        </mxCell>
        <mxCell id="8fm8BEINYyHVR1qGwP7b-49" value="&lt;p style=&quot;margin:0px;margin-top:4px;text-align:center;&quot;&gt;&lt;b&gt;결제&amp;nbsp; Class&lt;/b&gt;&lt;/p&gt;&lt;hr size=&quot;1&quot;&gt;&lt;p style=&quot;margin:0px;margin-left:4px;&quot;&gt;+ paymentStatus : String&lt;/p&gt;&lt;p style=&quot;margin:0px;margin-left:4px;&quot;&gt;+ paymentMethod : String&lt;br&gt;&lt;/p&gt;&lt;p style=&quot;margin:0px;margin-left:4px;&quot;&gt;&lt;br&gt;&lt;/p&gt;&lt;p style=&quot;margin:0px;margin-left:4px;&quot;&gt;&lt;br&gt;&lt;/p&gt;&lt;p style=&quot;margin:0px;margin-left:4px;&quot;&gt;&lt;br&gt;&lt;/p&gt;" style="verticalAlign=top;align=left;overflow=fill;fontSize=12;fontFamily=Helvetica;html=1;whiteSpace=wrap;shadow=1;" parent="mxSxCT3K7TG5ama-A4u--1" vertex="1">
          <mxGeometry x="-1870" y="200" width="160" height="160" as="geometry" />
        </mxCell>
        <mxCell id="8fm8BEINYyHVR1qGwP7b-50" value="&lt;p style=&quot;margin:0px;margin-top:4px;text-align:center;&quot;&gt;&lt;b&gt;결제&amp;nbsp; Class&lt;/b&gt;&lt;/p&gt;&lt;hr size=&quot;1&quot;&gt;&lt;p style=&quot;margin:0px;margin-left:4px;&quot;&gt;+ paymentStatus : String&lt;/p&gt;&lt;p style=&quot;margin:0px;margin-left:4px;&quot;&gt;+ paymentMethod : String&lt;br&gt;&lt;/p&gt;&lt;p style=&quot;margin:0px;margin-left:4px;&quot;&gt;&lt;br&gt;&lt;/p&gt;&lt;p style=&quot;margin:0px;margin-left:4px;&quot;&gt;&lt;br&gt;&lt;/p&gt;&lt;p style=&quot;margin:0px;margin-left:4px;&quot;&gt;&lt;br&gt;&lt;/p&gt;" style="verticalAlign=top;align=left;overflow=fill;fontSize=12;fontFamily=Helvetica;html=1;whiteSpace=wrap;shadow=1;" parent="mxSxCT3K7TG5ama-A4u--1" vertex="1">
          <mxGeometry x="-1280" y="820" width="160" height="160" as="geometry" />
        </mxCell>
      </root>
    </mxGraphModel>
  </diagram>
</mxfile>
